<svg width="19" height="18" viewBox="0 0 19 18" fill="none" xmlns="http://www.w3.org/2000/svg">
<path d="M8.28377 1.84425C8.85955 0.971154 10.1404 0.971154 10.7162 1.84425C11.1092 2.44008 11.8759 2.66352 12.5274 2.37206L12.666 2.31004C13.5851 1.89887 14.6206 2.57995 14.607 3.58674C14.5975 4.28944 15.1183 4.88673 15.8157 4.97313L15.9522 4.99005C16.9461 5.11318 17.4524 6.24918 16.8794 7.07055C16.4786 7.64514 16.594 8.4335 17.1411 8.87112C17.9334 9.50499 17.761 10.7584 16.8248 11.1499L16.7698 11.1729C16.1239 11.4429 15.7932 12.1632 16.0093 12.8291C16.3177 13.7788 15.5201 14.7215 14.5324 14.5747L14.3625 14.5495C13.6623 14.4454 12.9923 14.873 12.7918 15.5519C12.5016 16.5344 11.2984 16.8958 10.5149 16.2359L10.4504 16.1816C9.90124 15.719 9.09876 15.719 8.54958 16.1816L8.48511 16.2359C7.7016 16.8958 6.49835 16.5344 6.20818 15.5519C6.00765 14.873 5.33771 14.4454 4.63745 14.5495L4.46757 14.5747C3.47991 14.7215 2.68234 13.7788 2.99066 12.8291C3.20681 12.1632 2.87608 11.4429 2.23023 11.1729L2.17516 11.1499C1.23898 10.7584 1.06657 9.50499 1.85895 8.87112C2.40602 8.4335 2.52142 7.64514 2.1206 7.07055C1.54764 6.24918 2.05388 5.11318 3.04776 4.99005L3.18431 4.97313C3.88174 4.88673 4.40248 4.28944 4.393 3.58674C4.37943 2.57995 5.41488 1.89887 6.33398 2.31004L6.47261 2.37206C7.12412 2.66352 7.89084 2.44008 8.28377 1.84425Z" fill="#C9FE6E"/>
<path d="M7 9.21875L8.96875 11.2188L12.9062 7" stroke="black" stroke-width="0.84375" stroke-linecap="round" stroke-linejoin="round"/>
</svg>
