<svg width="285" height="84" viewBox="0 0 285 84" fill="none" xmlns="http://www.w3.org/2000/svg">
<g filter="url(#filter0_iii_88_58)">
<rect width="284.883" height="83.421" rx="41.7105" fill="url(#paint0_radial_88_58)"/>
<rect x="0.74483" y="0.74483" width="283.394" height="81.9313" rx="40.9656" stroke="url(#paint1_radial_88_58)" stroke-width="1.48966"/>
<path d="M58.3712 50.2104V33.2879H64.9495C67.047 33.2879 68.6518 33.6613 69.7641 34.4081C70.8764 35.1391 71.4325 36.299 71.4325 37.888C71.4325 38.5871 71.2895 39.1989 71.0035 39.7232C70.7175 40.2317 70.2964 40.6369 69.7403 40.9388C69.2 41.2407 68.5406 41.4234 67.762 41.487V41.4393C69.1762 41.5347 70.2567 41.9478 71.0035 42.6787C71.7662 43.3938 72.1476 44.3471 72.1476 45.5389C72.1476 47.112 71.5914 48.2878 70.4791 49.0664C69.3827 49.8291 67.8097 50.2104 65.7599 50.2104H58.3712ZM61.994 47.255H65.5931C66.467 47.255 67.1661 47.0802 67.6905 46.7306C68.2307 46.3651 68.5009 45.8249 68.5009 45.1099C68.5009 44.3948 68.2307 43.8546 67.6905 43.4891C67.1661 43.1077 66.467 42.9171 65.5931 42.9171H61.994V47.255ZM61.994 40.2953H64.8542C65.744 40.2953 66.4511 40.1205 66.9755 39.7709C67.5157 39.4213 67.7858 38.9208 67.7858 38.2693C67.7858 37.5702 67.5237 37.0617 66.9993 36.7439C66.4908 36.4102 65.7758 36.2434 64.8542 36.2434H61.994V40.2953ZM79.8232 50.4965C78.5203 50.4965 77.3841 50.2263 76.4149 49.6861C75.4456 49.1299 74.6908 48.3514 74.1506 47.3503C73.6103 46.3493 73.3402 45.1734 73.3402 43.8228C73.3402 42.4722 73.6103 41.3043 74.1506 40.3191C74.6908 39.3181 75.4456 38.5395 76.4149 37.9833C77.3841 37.4272 78.5203 37.1491 79.8232 37.1491C81.1262 37.1491 82.2623 37.4272 83.2316 37.9833C84.2008 38.5395 84.9556 39.3181 85.4958 40.3191C86.0361 41.3043 86.3062 42.4722 86.3062 43.8228C86.3062 45.1734 86.0361 46.3493 85.4958 47.3503C84.9556 48.3514 84.2008 49.1299 83.2316 49.6861C82.2623 50.2263 81.1262 50.4965 79.8232 50.4965ZM79.8232 47.7555C80.713 47.7555 81.4042 47.4139 81.8968 46.7306C82.3894 46.0315 82.6357 45.0622 82.6357 43.8228C82.6357 42.5834 82.3894 41.6221 81.8968 40.9388C81.4042 40.2397 80.713 39.8901 79.8232 39.8901C78.9334 39.8901 78.2422 40.2397 77.7496 40.9388C77.257 41.6221 77.0107 42.5834 77.0107 43.8228C77.0107 45.0622 77.257 46.0315 77.7496 46.7306C78.2422 47.4139 78.9334 47.7555 79.8232 47.7555ZM93.5793 50.4965C92.2763 50.4965 91.1402 50.2263 90.171 49.6861C89.2017 49.1299 88.4469 48.3514 87.9067 47.3503C87.3664 46.3493 87.0963 45.1734 87.0963 43.8228C87.0963 42.4722 87.3664 41.3043 87.9067 40.3191C88.4469 39.3181 89.2017 38.5395 90.171 37.9833C91.1402 37.4272 92.2763 37.1491 93.5793 37.1491C94.8823 37.1491 96.0184 37.4272 96.9876 37.9833C97.9569 38.5395 98.7117 39.3181 99.2519 40.3191C99.7922 41.3043 100.062 42.4722 100.062 43.8228C100.062 45.1734 99.7922 46.3493 99.2519 47.3503C98.7117 48.3514 97.9569 49.1299 96.9876 49.6861C96.0184 50.2263 94.8823 50.4965 93.5793 50.4965ZM93.5793 47.7555C94.4691 47.7555 95.1603 47.4139 95.6529 46.7306C96.1455 46.0315 96.3918 45.0622 96.3918 43.8228C96.3918 42.5834 96.1455 41.6221 95.6529 40.9388C95.1603 40.2397 94.4691 39.8901 93.5793 39.8901C92.6895 39.8901 91.9983 40.2397 91.5057 40.9388C91.0131 41.6221 90.7668 42.5834 90.7668 43.8228C90.7668 45.0622 91.0131 46.0315 91.5057 46.7306C91.9983 47.4139 92.6895 47.7555 93.5793 47.7555ZM101.544 50.2104V33.2879H105.119V42.6787L109.862 37.4351H114.152L109.194 42.7026L114.295 50.2104H110.386L106.883 44.7285L105.119 46.6114V50.2104H101.544ZM124.699 50.4965C123.38 50.4965 122.3 50.1946 121.457 49.5908C120.631 48.9711 120.218 48.113 120.218 47.0166C120.218 45.8884 120.568 45.0225 121.267 44.4187C121.982 43.799 123.03 43.3461 124.413 43.0601L128.536 42.2497C128.536 41.4234 128.346 40.8037 127.964 40.3906C127.599 39.9616 127.066 39.7471 126.367 39.7471C125.684 39.7471 125.152 39.906 124.77 40.2238C124.389 40.5257 124.143 40.9785 124.031 41.5823L120.432 41.4155C120.671 40.0172 121.298 38.9605 122.315 38.2455C123.348 37.5146 124.699 37.1491 126.367 37.1491C128.274 37.1491 129.704 37.602 130.657 38.5077C131.627 39.4134 132.111 40.7402 132.111 42.4881V46.8498C132.111 47.2152 132.167 47.4615 132.278 47.5886C132.405 47.6999 132.588 47.7555 132.826 47.7555H133.184V50.2104C133.073 50.2422 132.89 50.274 132.636 50.3058C132.397 50.3376 132.159 50.3535 131.921 50.3535C131.412 50.3535 130.936 50.2661 130.491 50.0913C130.062 49.9165 129.712 49.6225 129.442 49.2094C129.172 48.7804 129.037 48.1766 129.037 47.398L129.347 47.6363C129.188 48.2083 128.902 48.7089 128.489 49.1379C128.091 49.5669 127.567 49.9006 126.915 50.1389C126.28 50.3773 125.541 50.4965 124.699 50.4965ZM125.557 48.0415C126.145 48.0415 126.661 47.9303 127.106 47.7078C127.551 47.4695 127.901 47.1278 128.155 46.6829C128.409 46.238 128.536 45.7137 128.536 45.1099V44.4902L125.628 45.1099C125.056 45.2211 124.619 45.4118 124.317 45.6819C124.031 45.9361 123.888 46.2698 123.888 46.6829C123.888 47.112 124.031 47.4456 124.317 47.684C124.604 47.9223 125.017 48.0415 125.557 48.0415ZM146.359 50.5918C144.818 50.5918 143.444 50.2422 142.236 49.5431C141.044 48.8439 140.107 47.8349 139.424 46.5161C138.756 45.1972 138.423 43.6162 138.423 41.773C138.423 39.9775 138.748 38.4203 139.4 37.1014C140.051 35.7667 140.981 34.7339 142.188 34.0029C143.396 33.272 144.81 32.9066 146.431 32.9066C148.64 32.9066 150.356 33.4548 151.579 34.5511C152.819 35.6316 153.613 37.1809 153.963 39.1989L150.197 39.3419C150.006 38.2773 149.593 37.451 148.957 36.8631C148.322 36.2593 147.48 35.9574 146.431 35.9574C145.525 35.9574 144.755 36.1957 144.119 36.6724C143.483 37.1491 142.999 37.8244 142.665 38.6984C142.331 39.5723 142.165 40.5972 142.165 41.773C142.165 42.9647 142.331 43.9976 142.665 44.8715C143.015 45.7296 143.507 46.389 144.143 46.8498C144.778 47.3106 145.533 47.541 146.407 47.541C147.551 47.541 148.433 47.2232 149.053 46.5876C149.688 45.9361 150.086 45.0383 150.244 43.8943L154.034 44.0373C153.812 45.4197 153.375 46.5955 152.723 47.5648C152.072 48.5341 151.214 49.2809 150.149 49.8053C149.1 50.3296 147.837 50.5918 146.359 50.5918ZM159.333 50.4965C158.015 50.4965 156.934 50.1946 156.092 49.5908C155.266 48.9711 154.853 48.113 154.853 47.0166C154.853 45.8884 155.202 45.0225 155.901 44.4187C156.616 43.799 157.665 43.3461 159.047 43.0601L163.171 42.2497C163.171 41.4234 162.98 40.8037 162.599 40.3906C162.233 39.9616 161.701 39.7471 161.002 39.7471C160.319 39.7471 159.786 39.906 159.405 40.2238C159.024 40.5257 158.777 40.9785 158.666 41.5823L155.067 41.4155C155.305 40.0172 155.933 38.9605 156.95 38.2455C157.983 37.5146 159.333 37.1491 161.002 37.1491C162.909 37.1491 164.339 37.602 165.292 38.5077C166.261 39.4134 166.746 40.7402 166.746 42.4881V46.8498C166.746 47.2152 166.802 47.4615 166.913 47.5886C167.04 47.6999 167.223 47.7555 167.461 47.7555H167.819V50.2104C167.707 50.2422 167.525 50.274 167.27 50.3058C167.032 50.3376 166.794 50.3535 166.555 50.3535C166.047 50.3535 165.57 50.2661 165.125 50.0913C164.696 49.9165 164.347 49.6225 164.077 49.2094C163.806 48.7804 163.671 48.1766 163.671 47.398L163.981 47.6363C163.822 48.2083 163.536 48.7089 163.123 49.1379C162.726 49.5669 162.202 49.9006 161.55 50.1389C160.914 50.3773 160.176 50.4965 159.333 50.4965ZM160.191 48.0415C160.779 48.0415 161.296 47.9303 161.741 47.7078C162.186 47.4695 162.535 47.1278 162.789 46.6829C163.044 46.238 163.171 45.7137 163.171 45.1099V44.4902L160.263 45.1099C159.691 45.2211 159.254 45.4118 158.952 45.6819C158.666 45.9361 158.523 46.2698 158.523 46.6829C158.523 47.112 158.666 47.4456 158.952 47.684C159.238 47.9223 159.651 48.0415 160.191 48.0415ZM172.055 50.2104C171.006 50.2104 170.188 49.9483 169.6 49.4239C169.012 48.8995 168.718 48.0494 168.718 46.8736V33.2879H172.293V46.4923C172.293 46.8736 172.381 47.1437 172.555 47.3026C172.73 47.4615 172.984 47.541 173.318 47.541H174.176V50.2104H172.055ZM178.549 50.2104C177.5 50.2104 176.682 49.9483 176.094 49.4239C175.506 48.8995 175.212 48.0494 175.212 46.8736V33.2879H178.787V46.4923C178.787 46.8736 178.874 47.1437 179.049 47.3026C179.224 47.4615 179.478 47.541 179.812 47.541H180.67V50.2104H178.549Z" fill="white"/>
<path d="M206.092 31.9503C206.982 29.3434 210.584 29.2645 211.641 31.7135L211.73 31.9518L212.932 35.4674C213.208 36.2737 213.653 37.0114 214.238 37.631C214.823 38.2506 215.533 38.7375 216.323 39.059L216.646 39.1796L220.161 40.3803C222.768 41.2711 222.847 44.8731 220.4 45.9293L220.161 46.0187L216.646 47.2208C215.839 47.4961 215.101 47.9413 214.481 48.5261C213.862 49.111 213.374 49.8221 213.053 50.6113L212.932 50.9331L211.731 54.4501C210.841 57.057 207.239 57.136 206.184 54.6885L206.092 54.4501L204.891 50.9345C204.616 50.128 204.17 49.3899 203.586 48.7701C203.001 48.1503 202.29 47.6631 201.5 47.3415L201.179 47.2208L197.663 46.0202C195.055 45.1293 194.976 41.5273 197.425 40.4727L197.663 40.3803L201.179 39.1796C201.985 38.9041 202.723 38.4589 203.342 37.8741C203.962 37.2892 204.449 36.5782 204.77 35.7892L204.891 35.4674L206.092 31.9503ZM220.829 26.814C221.107 26.814 221.381 26.8921 221.617 27.0396C221.854 27.1871 222.044 27.3979 222.166 27.6482L222.238 27.8225L222.759 29.3509L224.289 29.8722C224.569 29.9671 224.813 30.1428 224.993 30.377C225.172 30.6111 225.278 30.8933 225.297 31.1876C225.316 31.482 225.247 31.7753 225.098 32.0304C224.95 32.2856 224.73 32.491 224.465 32.6207L224.289 32.6922L222.761 33.2135L222.239 34.7434C222.144 35.0226 221.969 35.2673 221.734 35.4465C221.5 35.6257 221.218 35.7314 220.924 35.75C220.629 35.7687 220.336 35.6996 220.081 35.5514C219.826 35.4032 219.621 35.1827 219.491 34.9177L219.42 34.7434L218.898 33.215L217.368 32.6937C217.089 32.5988 216.844 32.4231 216.665 32.1889C216.485 31.9548 216.38 31.6726 216.361 31.3783C216.342 31.0839 216.411 30.7906 216.559 30.5355C216.707 30.2803 216.928 30.0749 217.193 29.9452L217.368 29.8737L218.897 29.3523L219.418 27.8225C219.519 27.5281 219.709 27.2726 219.962 27.0918C220.215 26.9109 220.518 26.8138 220.829 26.814Z" fill="white"/>
</g>
<defs>
<filter id="filter0_iii_88_58" x="0" y="-20.4083" width="284.883" height="115.747" filterUnits="userSpaceOnUse" color-interpolation-filters="sRGB">
<feFlood flood-opacity="0" result="BackgroundImageFix"/>
<feBlend mode="normal" in="SourceGraphic" in2="BackgroundImageFix" result="shape"/>
<feColorMatrix in="SourceAlpha" type="matrix" values="0 0 0 0 0 0 0 0 0 0 0 0 0 0 0 0 0 0 127 0" result="hardAlpha"/>
<feOffset dy="11.9173"/>
<feGaussianBlur stdDeviation="17.8759"/>
<feComposite in2="hardAlpha" operator="arithmetic" k2="-1" k3="1"/>
<feColorMatrix type="matrix" values="0 0 0 0 1 0 0 0 0 1 0 0 0 0 1 0 0 0 0.25 0"/>
<feBlend mode="plus-lighter" in2="shape" result="effect1_innerShadow_88_58"/>
<feColorMatrix in="SourceAlpha" type="matrix" values="0 0 0 0 0 0 0 0 0 0 0 0 0 0 0 0 0 0 127 0" result="hardAlpha"/>
<feOffset dy="-35.7518"/>
<feGaussianBlur stdDeviation="10.2042"/>
<feComposite in2="hardAlpha" operator="arithmetic" k2="-1" k3="1"/>
<feColorMatrix type="matrix" values="0 0 0 0 1 0 0 0 0 1 0 0 0 0 1 0 0 0 0.22 0"/>
<feBlend mode="normal" in2="effect1_innerShadow_88_58" result="effect2_innerShadow_88_58"/>
<feColorMatrix in="SourceAlpha" type="matrix" values="0 0 0 0 0 0 0 0 0 0 0 0 0 0 0 0 0 0 127 0" result="hardAlpha"/>
<feOffset/>
<feGaussianBlur stdDeviation="8.93796"/>
<feComposite in2="hardAlpha" operator="arithmetic" k2="-1" k3="1"/>
<feColorMatrix type="matrix" values="0 0 0 0 1 0 0 0 0 1 0 0 0 0 1 0 0 0 1 0"/>
<feBlend mode="normal" in2="effect2_innerShadow_88_58" result="effect3_innerShadow_88_58"/>
</filter>
<radialGradient id="paint0_radial_88_58" cx="0" cy="0" r="1" gradientUnits="userSpaceOnUse" gradientTransform="translate(142.442 41.7105) scale(142.442 41.7105)">
<stop stop-color="#8264DC"/>
<stop offset="1" stop-color="#001890"/>
</radialGradient>
<radialGradient id="paint1_radial_88_58" cx="0" cy="0" r="1" gradientUnits="userSpaceOnUse" gradientTransform="translate(142.442 41.7105) scale(142.442 41.7105)">
<stop stop-color="white"/>
<stop offset="1" stop-color="white" stop-opacity="0"/>
</radialGradient>
</defs>
</svg>
